# xmcd CD database file
#
# Track frame offsets:
#	150
#	27535
#	50110
#	78385
#	111160
#	139210
#	172510
#	207685
#	240010
#
# Disc length: 3452 seconds
#
# Revision: 0
# Processed by: cddbd v1.5.1PL0 Copyright (c) Steve Scherf et al.
# Submitted via: CDex 1.51
#
DISCID=750d7a09
DTITLE=Larry Coryell, Victor Bailey, Lenny White - Electric
DYEAR=2005
DGENRE=Jazz
TTITLE0=Wolfbane
TTITLE1=BB Blues
TTITLE2=So What
TTITLE3=Sex Machine
TTITLE4=Black Dog
TTITLE5=Footprints
TTITLE6=Born Under A Bad Sign
TTITLE7=Lowblow
TTITLE8=Rhapsody And Blues
EXTD=YEAR: 2005
EXTT0=
EXTT1=
EXTT2=
EXTT3=
EXTT4=
EXTT5=
EXTT6=
EXTT7=
EXTT8=
PLAYORDER=
